<svg width="2827" height="993" viewBox="0 0 2827 993" fill="none" xmlns="http://www.w3.org/2000/svg">
<path d="M987.76 381.69C974.9 381.69 964.48 378.02 956.53 370.67C948.56 363.32 944.59 354.14 944.59 343.11C944.59 330.87 948.57 321.06 956.53 313.72C964.48 306.37 974.9 302.7 987.76 302.7H1199.95C1212.81 302.7 1223.21 306.37 1231.18 313.72C1239.13 321.07 1243.12 330.87 1243.12 343.11C1243.12 354.13 1239.13 363.32 1231.18 370.67C1223.21 378.02 1212.81 381.69 1199.95 381.69H987.76ZM1191.68 786.77C1161.05 786.77 1133.5 778.96 1109.01 763.35C1084.51 747.73 1065.22 726.46 1051.14 699.51C1037.05 672.57 1030.02 642.26 1030.02 608.57V170.43C1030.02 156.97 1034.3 145.94 1042.88 137.36C1051.45 128.79 1062.47 124.5 1075.95 124.5C1089.43 124.5 1100.43 128.79 1109.02 137.36C1117.59 145.94 1121.88 156.97 1121.88 170.43V608.57C1121.88 633.07 1128.61 653.58 1142.09 670.11C1155.55 686.64 1172.09 694.91 1191.69 694.91H1222.92C1233.94 694.91 1243.27 699.2 1250.93 707.77C1258.58 716.35 1262.41 727.37 1262.41 740.84C1262.41 754.31 1257.36 765.34 1247.25 773.91C1237.15 782.49 1224.13 786.77 1208.21 786.77H1191.68Z" fill="white"/>
<path d="M1556.64 790.44C1511.93 790.44 1471.82 779.27 1436.31 756.91C1400.79 734.56 1372.77 704.25 1352.27 665.97C1331.75 627.71 1321.5 584.38 1321.5 536C1321.5 487.62 1332.67 444.15 1355.03 405.57C1377.38 366.99 1407.69 336.54 1445.97 314.17C1484.23 291.82 1527.26 280.64 1575.03 280.64C1622.8 280.64 1665.65 291.82 1703.63 314.17C1741.59 336.53 1771.74 366.99 1794.11 405.57C1816.45 444.15 1827.64 487.64 1827.64 536H1791.82C1791.82 584.38 1781.56 627.71 1761.05 665.97C1740.53 704.25 1712.51 734.56 1677 756.91C1641.48 779.27 1601.36 790.44 1556.67 790.44H1556.64ZM1575.01 707.77C1606.24 707.77 1634.1 700.28 1658.6 685.27C1683.09 670.27 1702.37 649.76 1716.47 623.73C1730.55 597.71 1737.6 568.47 1737.6 536.01C1737.6 503.55 1730.55 473.41 1716.47 447.37C1702.38 421.35 1683.09 400.84 1658.6 385.83C1634.1 370.83 1606.24 363.33 1575.01 363.33C1543.78 363.33 1516.68 370.84 1491.88 385.83C1467.08 400.84 1447.47 421.35 1433.09 447.37C1418.7 473.41 1411.5 502.94 1411.5 536.01C1411.5 569.08 1418.69 597.71 1433.09 623.73C1447.47 649.76 1467.08 670.27 1491.88 685.27C1516.68 700.28 1544.38 707.77 1575.01 707.77ZM1780.76 787.68C1767.28 787.68 1756.1 783.25 1747.24 774.36C1738.35 765.49 1733.92 754.31 1733.92 740.83V600.29L1751.37 502.92L1827.61 535.99V740.82C1827.61 754.3 1823.16 765.48 1814.29 774.35C1805.41 783.23 1794.23 787.67 1780.76 787.67V787.68Z" fill="white"/>
<path d="M2120 790.44C2077.13 790.44 2037.47 783.87 2001.05 770.69C1964.61 757.53 1936.29 740.84 1916.08 720.63C1906.89 710.84 1903.06 699.66 1904.6 687.1C1906.12 674.56 1912.09 664.29 1922.51 656.33C1934.75 646.54 1946.85 642.41 1958.79 643.93C1970.73 645.47 1980.98 650.82 1989.56 660C1999.97 671.64 2016.66 682.5 2039.62 692.61C2062.58 702.71 2088.15 707.77 2116.32 707.77C2151.83 707.77 2178.93 701.96 2197.61 690.32C2216.28 678.69 2225.93 663.68 2226.54 645.31C2227.14 626.94 2218.42 611.02 2200.36 597.55C2182.29 584.09 2149.38 573.06 2101.62 564.48C2039.76 552.24 1994.91 533.87 1967.05 509.37C1939.18 484.89 1925.26 454.87 1925.26 419.35C1925.26 388.12 1934.45 362.26 1952.82 341.73C1971.19 321.22 1994.76 305.91 2023.55 295.8C2052.33 285.7 2082.34 280.64 2113.57 280.64C2153.99 280.64 2189.81 287.07 2221.04 299.93C2252.27 312.79 2277.07 330.56 2295.44 353.21C2304.01 363.01 2307.98 373.27 2307.38 383.98C2306.76 394.7 2301.55 403.73 2291.76 411.08C2281.96 417.83 2270.32 419.96 2256.86 417.51C2243.38 415.07 2232.06 409.56 2222.87 400.98C2207.56 386.28 2191.02 376.18 2173.27 370.67C2155.5 365.16 2134.99 362.4 2111.73 362.4C2084.78 362.4 2061.97 366.99 2043.3 376.18C2024.61 385.37 2015.28 398.84 2015.28 416.6C2015.28 427.62 2018.18 437.58 2024 446.45C2029.81 455.33 2041.29 463.3 2058.45 470.33C2075.59 477.38 2100.71 484.27 2133.77 491C2179.7 500.19 2215.98 511.83 2242.62 525.9C2269.26 540 2288.39 556.37 2300.03 575.04C2311.66 593.73 2317.48 615.31 2317.48 639.8C2317.48 667.97 2309.97 693.39 2294.97 716.04C2279.96 738.7 2257.91 756.77 2228.84 770.23C2199.75 783.71 2163.47 790.44 2119.99 790.44H2120Z" fill="white"/>
<path d="M2480.99 786.77C2467.51 786.77 2456.65 782.64 2448.38 774.37C2440.11 766.1 2435.98 755.24 2435.98 741.76V114.39C2435.98 100.93 2440.11 90.05 2448.38 81.78C2456.65 73.51 2467.51 69.38 2480.99 69.38C2494.47 69.38 2505.33 73.51 2513.6 81.78C2521.87 90.05 2526 100.93 2526 114.39V741.75C2526 755.23 2521.86 766.09 2513.6 774.36C2505.34 782.63 2494.45 786.76 2480.99 786.76V786.77ZM2524.16 603.06L2467.21 540.6L2749.2 288.92C2758.39 280.35 2768.63 276.38 2779.97 276.98C2791.3 277.6 2800.94 282.49 2808.9 291.68C2817.47 300.87 2821.44 310.97 2820.84 321.99C2820.22 333.01 2815.33 342.81 2806.14 351.38L2524.15 603.06H2524.16ZM2808.91 782.18C2799.11 790.13 2788.24 793.66 2776.3 792.74C2764.36 791.82 2754.4 786.47 2746.45 776.67L2559.98 546.12L2624.28 485.5L2815.34 720.65C2823.29 730.45 2826.82 741.02 2825.9 752.34C2824.98 763.68 2819.31 773.62 2808.91 782.19V782.18Z" fill="white"/>
<path d="M412.53 374.69C441.36 326.68 483.21 287.42 533.15 261.79V206H591.42L472.81 0.559998L354.2 206H412.53V374.69Z" fill="#C026D3"/>
<path d="M669.93 270.96C619.69 270.96 572.83 285.37 533.15 310.28C464.46 353.46 417.47 428.01 412.53 513.71C412.17 518.72 412.05 523.78 412.05 528.85V531.14C409.88 560.99 398.66 588.31 381.11 610.45C354.45 644.34 313.02 666.12 266.64 666.12C186.19 666.12 120.75 600.68 120.75 520.23V265.06H0.130005V520.23C0.130005 667.15 119.67 786.74 266.64 786.74C320.27 786.74 370.23 770.79 412.07 743.44V992.81H532.69V747.09C572.46 772.2 619.54 786.74 669.94 786.74C812.15 786.74 927.83 671.06 927.83 528.85C927.83 386.64 812.15 270.96 669.94 270.96H669.93ZM669.93 666.12C595.93 666.12 535.44 607.26 532.78 533.92C532.78 533.86 532.72 533.86 532.78 533.8C533.02 529.28 533.14 524.75 533.14 520.23V517.94C538.69 447.32 597.91 391.59 669.92 391.59C745.61 391.59 807.19 453.17 807.19 528.86C807.19 604.55 745.61 666.13 669.92 666.13L669.93 666.12Z" fill="#A78BFA"/>
</svg>
